<svg version="1.1" id="Layer_1" xmlns="http://www.w3.org/2000/svg" xmlns:xlink="http://www.w3.org/1999/xlink" x="0px" y="0px"
	 width="100%" viewBox="0 0 64 64" enable-background="new 0 0 64 64" xml:space="preserve">
<path fill="#FFFFFF" opacity="1.000000" stroke="none" 
	d="
M1.000000,31.000000 
	C1.000000,21.073496 1.000000,11.146992 1.000000,1.000000 
	C10.686449,1.000000 20.374567,1.000000 30.408562,1.390999 
	C29.765665,5.659590 28.482599,9.614066 33.365845,12.221004 
	C37.164795,8.765890 36.530926,4.948104 35.000000,1.000000 
	C44.926502,1.000000 54.853008,1.000000 65.000000,1.000000 
	C65.000000,10.686449 65.000000,20.374567 64.609001,30.408562 
	C60.340412,29.765667 56.385937,28.482605 53.859123,33.215744 
	C57.118336,36.463200 60.097538,36.895996 65.000000,35.000000 
	C65.000000,44.964588 65.000000,54.929180 65.000000,64.946884 
	C43.777725,64.946884 22.555290,64.946884 1.000000,64.946884 
	C1.000000,55.314980 1.000000,45.626148 1.390999,35.591438 
	C5.659590,36.234337 9.614068,37.517406 12.153952,32.759750 
	C8.811411,28.521856 4.924528,29.631365 1.000000,31.000000 
M29.120354,18.012819 
	C27.830423,18.656830 26.518505,19.260592 25.254118,19.951355 
	C16.726704,24.610077 16.323530,35.427265 20.125145,41.631008 
	C22.499695,45.505970 24.808119,49.421452 27.446884,53.819916 
	C30.910976,53.819916 35.371719,53.819916 38.752056,53.819916 
	C41.059971,49.635487 42.857307,45.931637 45.059177,42.486324 
	C48.582146,36.973862 49.368187,31.518221 46.143822,25.557955 
	C42.569695,18.951151 36.819954,17.408283 29.120354,18.012819 
M38.999630,58.471363 
	C39.159622,56.343857 39.157845,54.600384 36.044533,54.934158 
	C33.155834,55.243851 30.207819,55.000210 27.190378,55.000210 
	C27.190378,57.170273 27.190378,58.894596 27.190378,61.000000 
	C29.476027,61.000000 31.604811,61.205585 33.672375,60.938057 
	C35.482460,60.703846 37.223763,59.938038 38.999630,58.471363 
M12.051251,49.418991 
	C9.818645,51.452454 7.754757,53.541142 9.547958,56.959915 
	C10.749539,56.959915 12.459210,57.443119 12.950418,56.874237 
	C14.833547,54.693317 16.325502,52.174641 17.963430,49.782001 
	C16.192322,49.488220 14.421214,49.194439 12.051251,49.418991 
M48.002663,50.506207 
	C49.390743,55.673191 51.956047,57.370361 58.511997,56.085129 
	C56.294167,53.088791 54.730049,50.431046 52.569027,48.412254 
	C51.977188,47.859364 49.595875,49.222012 48.002663,50.506207 
M14.260410,9.825787 
	C12.633848,9.479023 11.007286,9.132260 9.338212,8.776434 
	C8.280807,13.207605 9.902194,15.690125 13.371119,16.981369 
	C14.531996,17.413485 15.938045,17.186949 17.232023,17.261484 
	C17.251333,15.777730 17.573221,14.208788 17.187582,12.839044 
	C16.913267,11.864714 15.685833,11.158727 14.260410,9.825787 
M50.010132,11.487488 
	C49.625141,13.440100 49.240147,15.392712 48.855152,17.345322 
	C50.711937,16.921196 53.098240,17.060371 54.295643,15.934790 
	C55.904987,14.421974 56.596512,11.932780 57.682014,9.862699 
	C57.200733,9.367522 56.719452,8.872345 56.238171,8.377168 
	C54.354706,9.232391 52.471241,10.087614 50.010132,11.487488 
z"/>
<path fill="#000000" opacity="1.000000" stroke="none" 
	d="
M34.600006,1.000000 
	C36.530926,4.948104 37.164795,8.765890 33.365845,12.221004 
	C28.482599,9.614066 29.765665,5.659590 30.877220,1.390999 
	C32.066669,1.000000 33.133339,1.000000 34.600006,1.000000 
z"/>
<path fill="#000000" opacity="1.000000" stroke="none" 
	d="
M1.000000,31.399996 
	C4.924528,29.631365 8.811411,28.521856 12.153952,32.759750 
	C9.614068,37.517406 5.659590,36.234337 1.390999,35.122780 
	C1.000000,33.933331 1.000000,32.866661 1.000000,31.399996 
z"/>
<path fill="#000000" opacity="1.000000" stroke="none" 
	d="
M65.000000,34.600006 
	C60.097538,36.895996 57.118336,36.463200 53.859123,33.215744 
	C56.385937,28.482605 60.340412,29.765667 64.609001,30.877218 
	C65.000000,32.066669 65.000000,33.133339 65.000000,34.600006 
z"/>
<path fill="#000000" opacity="1.000000" stroke="none" 
	d="
M29.549610,18.006832 
	C36.819954,17.408283 42.569695,18.951151 46.143822,25.557955 
	C49.368187,31.518221 48.582146,36.973862 45.059177,42.486324 
	C42.857307,45.931637 41.059971,49.635487 38.752056,53.819916 
	C35.371719,53.819916 30.910976,53.819916 27.446884,53.819916 
	C24.808119,49.421452 22.499695,45.505970 20.125145,41.631008 
	C16.323530,35.427265 16.726704,24.610077 25.254118,19.951355 
	C26.518505,19.260592 27.830423,18.656830 29.549610,18.006832 
z"/>
<path fill="#000000" opacity="1.000000" stroke="none" 
	d="
M38.997543,58.939209 
	C37.223763,59.938038 35.482460,60.703846 33.672375,60.938057 
	C31.604811,61.205585 29.476027,61.000000 27.190378,61.000000 
	C27.190378,58.894596 27.190378,57.170273 27.190378,55.000210 
	C30.207819,55.000210 33.155834,55.243851 36.044533,54.934158 
	C39.157845,54.600384 39.159622,56.343857 38.997543,58.939209 
z"/>
<path fill="#000000" opacity="1.000000" stroke="none" 
	d="
M12.350679,49.159824 
	C14.421214,49.194439 16.192322,49.488220 17.963430,49.782001 
	C16.325502,52.174641 14.833547,54.693317 12.950418,56.874237 
	C12.459210,57.443119 10.749539,56.959915 9.547958,56.959915 
	C7.754757,53.541142 9.818645,51.452454 12.350679,49.159824 
z"/>
<path fill="#000000" opacity="1.000000" stroke="none" 
	d="
M48.019203,50.105915 
	C49.595875,49.222012 51.977188,47.859364 52.569027,48.412254 
	C54.730049,50.431046 56.294167,53.088791 58.511997,56.085129 
	C51.956047,57.370361 49.390743,55.673191 48.019203,50.105915 
z"/>
<path fill="#000000" opacity="1.000000" stroke="none" 
	d="
M14.572092,10.079383 
	C15.685833,11.158727 16.913267,11.864714 17.187582,12.839044 
	C17.573221,14.208788 17.251333,15.777730 17.232023,17.261484 
	C15.938045,17.186949 14.531996,17.413485 13.371119,16.981369 
	C9.902194,15.690125 8.280807,13.207605 9.338212,8.776434 
	C11.007286,9.132260 12.633848,9.479023 14.572092,10.079383 
z"/>
<path fill="#000000" opacity="1.000000" stroke="none" 
	d="
M50.298954,11.215162 
	C52.471241,10.087614 54.354706,9.232391 56.238171,8.377168 
	C56.719452,8.872345 57.200733,9.367522 57.682014,9.862699 
	C56.596512,11.932780 55.904987,14.421974 54.295643,15.934790 
	C53.098240,17.060371 50.711937,16.921196 48.855152,17.345322 
	C49.240147,15.392712 49.625141,13.440100 50.298954,11.215162 
z"/>
</svg>